<?xml version="1.0" encoding="UTF-8"?>
<svg id="Neu" xmlns="http://www.w3.org/2000/svg" viewBox="0 0 107.92 19.74">
  <defs>
    <style>
      .cls-1 {
        fill: #f10;
      }
    </style>
  </defs>
  <g id="Neu-2" data-name="Neu">
    <path id="B" class="cls-1" d="M13.33,11.21c0,2.68-1.95,4.16-5.14,4.16H0V.81h8.21c3.08,0,4.53,1.56,4.53,3.68,0,1.6-.87,2.45-1.87,2.95v.17c1.1.37,2.45,1.39,2.45,3.6ZM3.39,6.53h4.37c1,0,1.52-.58,1.52-1.48s-.56-1.5-1.46-1.5H3.39v2.97ZM9.77,10.98c0-.94-.58-1.71-1.75-1.71H3.39v3.35h4.66c1.23,0,1.73-.77,1.73-1.64Z"/>
    <path id="Y" class="cls-1" d="M16.24,19.49l-.02-2.45c.44.08.83.12,1.12.12,1.12,0,2.12-.4,2.58-1.29l.25-.5h-1.06l-4.83-10.4h3.64l3.22,7.13h.19l2.97-7.13h3.62l-4.85,11.4c-.46,1.06-1.46,3.37-4.91,3.37-.75,0-1.35-.1-1.93-.25Z"/>
    <path id="S" class="cls-1" d="M28.43,11.85h3.31c.25.92,1.12,1.29,2.54,1.29,1.19,0,1.83-.21,1.83-.77,0-.48-.48-.71-1.81-.94l-2.1-.33c-1.98-.33-3.35-1.14-3.35-2.97,0-2.23,2.16-3.37,4.91-3.37,3.52,0,5.14,1.46,5.43,3.39h-3.37c-.19-.62-.75-.96-2.04-.96-1.06,0-1.6.23-1.6.73s.58.62,1.71.83l2.18.33c2.37.42,3.37,1.58,3.37,3.24,0,2.25-2.23,3.24-5.16,3.24-3.74,0-5.66-1.37-5.84-3.72Z"/>
    <path id="T" class="cls-1" d="M43.03,12.12v-4.51h-2.6v-2.64h1.02c1.29,0,1.83-.5,1.83-1.64v-1.29h3.12v2.93h3.27v2.64h-3.27v3.91c0,.6.1,1.41,1.58,1.41.33,0,.79-.04,1.19-.12v2.52c-.56.15-1.41.25-2.25.25-2.95,0-3.89-1.62-3.89-3.45Z"/>
    <path id="R" class="cls-1" d="M51.31,4.97h3.08l.29,1.5h.21c.87-1.16,1.68-1.71,3.64-1.71h1v3.37c-.48-.08-1.02-.12-1.48-.12-2.31,0-3.37,1.39-3.37,3.31v4.06h-3.37V4.97Z"/>
    <path id="O" class="cls-1" d="M60.51,10.17c0-3.29,2.77-5.41,6.61-5.41s6.59,2.12,6.59,5.41-2.75,5.41-6.59,5.41-6.61-2.14-6.61-5.41ZM70.35,10.17c0-1.44-1.12-2.5-3.22-2.5s-3.25,1.06-3.25,2.5,1.17,2.5,3.25,2.5,3.22-1.08,3.22-2.5Z"/>
    <path id="N" class="cls-1" d="M75.56,4.97h3.08l.29,1.25h.21c.75-.81,1.85-1.46,3.72-1.46,3.24,0,5.1,1.85,5.1,4.83v5.78h-3.37v-5.01c0-1.77-1.08-2.68-2.79-2.68s-2.87.87-2.87,2.72v4.97h-3.37V4.97Z"/>
    <g id="I_neu" data-name="I neu">
      <rect class="cls-1" x="90.13" y="4.97" width="3.37" height="10.4"/>
      <circle class="cls-1" cx="91.82" cy="1.97" r="1.97"/>
    </g>
    <path id="C" class="cls-1" d="M95.24,10.23c0-3.39,2.83-5.47,6.47-5.47,3.04,0,5.84,1.31,6.18,4.26h-3.37c-.29-.81-1.37-1.35-2.81-1.35-1.81,0-3.08.96-3.08,2.56s1.21,2.43,3.12,2.43c1.39,0,2.43-.33,2.79-1.08h3.39c-.35,2.52-2.72,3.99-6.18,3.99-3.93,0-6.51-2.14-6.51-5.35Z"/>
  </g>
</svg>